<?xml version="1.0" encoding="UTF-8" standalone="no"?>
<!-- Created with Inkscape (http://www.inkscape.org/) -->

<svg
   width="210mm"
   height="297mm"
   viewBox="0 0 210 297"
   version="1.1"
   id="svg5"
   inkscape:export-filename="/home/pieter/bitmap.png"
   inkscape:export-xdpi="96"
   inkscape:export-ydpi="96"
   inkscape:version="1.1.2 (0a00cf5339, 2022-02-04)"
   sodipodi:docname="instructions.svg"
   xmlns:inkscape="http://www.inkscape.org/namespaces/inkscape"
   xmlns:sodipodi="http://sodipodi.sourceforge.net/DTD/sodipodi-0.dtd"
   xmlns="http://www.w3.org/2000/svg"
   xmlns:svg="http://www.w3.org/2000/svg">
  <sodipodi:namedview
     id="namedview7"
     pagecolor="#ffffff"
     bordercolor="#666666"
     borderopacity="1.0"
     inkscape:pageshadow="2"
     inkscape:pageopacity="0.0"
     inkscape:pagecheckerboard="0"
     inkscape:document-units="mm"
     showgrid="false"
     showguides="true"
     inkscape:guide-bbox="true"
     inkscape:zoom="0.5"
     inkscape:cx="389"
     inkscape:cy="437"
     inkscape:window-width="1920"
     inkscape:window-height="946"
     inkscape:window-x="0"
     inkscape:window-y="0"
     inkscape:window-maximized="1"
     inkscape:current-layer="layer2">
    <sodipodi:guide
       position="117.21041,231.64792"
       orientation="0,-1"
       id="guide348" />
    <sodipodi:guide
       position="130.70416,231.64793"
       orientation="1,0"
       id="guide350" />
    <sodipodi:guide
       position="115.8875,224.76876"
       orientation="1,0"
       id="guide352" />
    <sodipodi:guide
       position="130.70416,186.40417"
       orientation="0,-1"
       id="guide392" />
    <sodipodi:guide
       position="84.931248,207.04167"
       orientation="1,0"
       id="guide394" />
    <sodipodi:guide
       position="115.8875,200.16251"
       orientation="0,-1"
       id="guide396" />
    <sodipodi:guide
       position="-10.054166,159.68125"
       orientation="0,-1"
       id="guide1181" />
    <sodipodi:guide
       position="60.854165,114.70209"
       orientation="0,-1"
       id="guide1183" />
    <sodipodi:guide
       position="24.870833,192.22501"
       orientation="1,0"
       id="guide1185" />
    <sodipodi:guide
       position="55.496354,176.65489"
       orientation="1,0"
       id="guide1187" />
    <sodipodi:guide
       position="29.897916,200.95626"
       orientation="1,0"
       id="guide1189" />
    <sodipodi:guide
       position="50.107536,275.78993"
       orientation="1,0"
       id="guide1191" />
  </sodipodi:namedview>
  <defs
     id="defs2" />
  <g
     inkscape:groupmode="layer"
     id="layer2"
     inkscape:label="Layer 2"
     style="display:inline">
    <g
       style="overflow:hidden;fill:currentColor;stroke-width:146.142;stroke-miterlimit:4;stroke-dasharray:none"
       id="g3224"
       transform="matrix(-0.02754291,0.02857422,-0.02857422,-0.02754291,103.18698,71.476272)">
      <path
         d="m 379.968,1022.592 a 30.4,30.4 0 0 1 -28.16,-18.688 c -0.32,-0.768 -16,-37.504 -84.864,-155.2 -38.208,-65.28 -66.112,-130.368 -90.752,-187.776 -21.568,-50.368 -41.92,-97.728 -65.984,-138.432 -17.92,-30.336 -18.944,-63.68 -2.88,-91.52 18.624,-32.192 58.24,-52.992 100.8,-52.992 25.344,0 48.832,6.912 69.12,19.84 L 280.64,114.432 C 281.6,74.816 305.088,0.768 386.304,0.768 c 30.656,0.448 55.04,10.56 72.32,29.248 28.928,31.04 28.928,74.88 28.48,85.12 l 3.52,126.912 a 112.64,112.64 0 0 1 44.864,-8.576 c 42.624,0.448 73.088,13.12 92.16,37.76 4.352,5.568 7.744,11.328 10.432,17.088 15.808,-7.04 34.048,-10.112 56.448,-8.512 30.464,2.176 55.616,14.208 72.64,34.944 7.936,9.664 13.632,20.48 17.536,31.68 16.448,-7.232 35.84,-8.832 56.576,-4.224 75.136,16.576 89.152,94.208 86.08,134.272 l 0.256,120 c 0.192,5.056 3.52,145.088 -78.912,284.352 -56.192,95.04 -68.608,117.376 -71.296,122.432 a 30.592,30.592 0 0 1 -30.208,19.2 z m -171.84,-584.32 c -20.544,0 -40.32,9.344 -48,22.72 -5.248,9.024 -4.416,19.2 2.56,31.04 25.984,44.096 47.104,93.248 69.44,145.28 25.088,58.56 51.072,119.104 87.424,181.12 45.76,78.272 68.736,121.92 79.68,143.872 H 730.88 c 10.048,-17.92 28.992,-50.368 65.472,-112 73.6,-124.416 70.656,-251.52 70.592,-252.8 l -0.256,-122.112 a 32,32 0 0 1 0.128,-2.752 c 0.128,-2.368 4.288,-62.08 -38.656,-71.616 a 45.44,45.44 0 0 0 -9.792,-1.152 c -4.928,0 -19.84,0 -27.776,30.784 -1.408,10.112 -3.008,16.384 -3.008,16.384 a 30.528,30.528 0 0 1 -34.368,22.656 30.144,30.144 0 0 1 -25.472,-32 126.72,126.72 0 0 1 3.072,-18.176 c 3.648,-29.184 -0.32,-54.08 -10.688,-66.624 -4.032,-4.992 -11.52,-11.648 -29.824,-12.928 -24.384,-1.664 -41.088,2.56 -44.352,33.28 l 1.152,29.12 a 30.144,30.144 0 0 1 -26.816,31.168 30.08,30.08 0 0 1 -33.344,-24.128 151.936,151.936 0 0 1 -1.92,-37.568 l -0.768,-18.816 a 30.144,30.144 0 0 1 0.896,-8.64 c 0,0 4.992,-23.04 -5.76,-36.608 -8.96,-11.328 -28.288,-13.888 -42.88,-14.08 -19.456,0 -37.312,4.736 -43.264,38.272 l 1.664,59.776 a 30.208,30.208 0 0 1 -26.816,30.784 30.08,30.08 0 0 1 -33.28,-23.68 c -0.32,-1.472 -7.36,-35.008 -2.56,-70.656 l -5.888,-212.608 v -2.816 c 0.448,-7.488 -0.96,-29.888 -12.416,-42.112 -5.952,-6.272 -14.656,-9.408 -26.624,-9.6 -43.2,0 -45.696,48.896 -45.888,54.464 l -4.416,366.72 a 30.272,30.272 0 0 1 -24.96,29.312 30.592,30.592 0 0 1 -33.792,-18.752 c -19.2,-49.28 -55.424,-54.592 -70.08,-54.592 z"
         fill="#000000"
         id="path3215"
         style="stroke-width:146.142;stroke-miterlimit:4;stroke-dasharray:none" />
    </g>
  </g>
  <g
     inkscape:label="Layer 1"
     inkscape:groupmode="layer"
     id="layer1"
     style="display:inline">
    <path
       style="fill:none;stroke:#000000;stroke-width:2.201;stroke-linecap:butt;stroke-linejoin:miter;stroke-opacity:1;stroke-miterlimit:4;stroke-dasharray:none"
       d="m 115.8875,65.352081 h 14.81666 V 110.59583 H 84.931248 V 96.837491 Z"
       id="path61"
       sodipodi:nodetypes="cccccc" />
  </g>
  <path
     style="fill:none;stroke:#000000;stroke-width:2.201;stroke-linecap:butt;stroke-linejoin:miter;stroke-opacity:1;stroke-miterlimit:4;stroke-dasharray:none"
     d="m 96.264925,110.59583 c 0,0 -3.617054,5.0635 -4.710825,8.45582 -1.093771,3.39232 -1.349271,11.62823 -1.349271,11.62823 l 5.922635,-0.18966 c 0,0 0.343797,-7.86704 1.372526,-11.23652 1.028729,-3.36949 5.05912,-8.65787 5.05912,-8.65787 z"
     id="path897"
     sodipodi:nodetypes="czcczcc" />
  <path
     style="fill:none;stroke:#000000;stroke-width:2.201;stroke-linecap:butt;stroke-linejoin:miter;stroke-miterlimit:4;stroke-dasharray:none;stroke-opacity:1"
     d="m 75.07027,126.52779 -19.573916,40.80758 17.138257,10.71022 28.406859,-35.2876 z"
     id="path1179"
     sodipodi:nodetypes="ccccc" />
</svg>
